# xmcd
#
# Track frame offsets: 
#        182
#        19805
#        37880
#        57080
#        78005
#        96907
#        119637
#        138612
#        159405
#        174250
#        193525
#        212495
#        230717
#        249772
#
# Disc length: 3604 seconds
#
# Revision: 3
# Processed by: cddbd v1.5.2PL0 Copyright (c) Steve Scherf et al.
# Submitted via: ExactAudioCopyFreeDBPlugin 1.0
#
DISCID=ae0e120e
DTITLE=Eros Ramazzotti - En ciertos momentos
DYEAR=1900
DGENRE=Opera
TTITLE0=Mi vida es un absurdo
TTITLE1=Ok, ya voy
TTITLE2=La luce buona delle stelle
TTITLE3=El juego de la no verdad
TTITLE4=Fantástico amor
TTITLE5=Chao papá
TTITLE6=Las cosas que he visto
TTITLE7=Diálogo
TTITLE8=Ojos de esperanza
TTITLE9=Mientras el cuerpo resista
TTITLE10=Una historia importante
TTITLE11=Ahora tú
TTITLE12=Un nuovo amore
TTITLE13=Emociones, cuántas emociones
EXTD=
EXTT0=
EXTT1=
EXTT2=
EXTT3=
EXTT4=
EXTT5=
EXTT6=
EXTT7=
EXTT8=
EXTT9=
EXTT10=
EXTT11=
EXTT12=
EXTT13=
PLAYORDER=
